<svg version="1.2" xmlns="http://www.w3.org/2000/svg" viewBox="0 0 842 595" width="842" height="595">
	<title>logotipo</title>
	<style>
		tspan { white-space:pre } 
		.s0 { fill: #51344d;stroke: #51344d;stroke-linejoin: round } 
		.s1 { fill: none;stroke: #51344d;stroke-linecap: round;stroke-linejoin: round;stroke-width: 12 } 
		.s2 { fill: #51344d;stroke: #51344d;stroke-miterlimit:10 } 
	</style>
	<g id="Layer 1">
	</g>
	<g id="Layer 2">
		<g id="Logo 00000078010424592979422500000013898281937183230353  copy 2">
			<path id="Forma 4 00000014600242763740569780000001050133290846191549 " fill-rule="evenodd" class="s0" d="m401.8 427.1c29.4-12.1 56.8 0 56.8 0l-28.1 32.9"/>
			<path id="Forma 5 00000130647472848033820120000006699511940703749777 " class="s1" d="m430.2 453.8c0 0 3.6 52.4 46 29.7"/>
			<path id="Forma 5 copy 00000012433800818590246600000005517675906741784485 " class="s1" d="m429.7 453.8c0 0-3.6 52.4-46 29.7"/>
			<path id="Forma 1 copy 00000088845055884445160830000002108221075085898902 " class="s1" d="m658.2 358.1c0 0-20.4-62.3-53.8-85.6-5.1-3.6 26.4-211.2-29.7-187.6-55.8 23.7-86.6 119.4-86.6 119.4 0 0-25.3-10.6-61.8-9.3"/>
			<path id="Forma 1 copy 2 00000103955275846649778870000005532888903441644199 " class="s1" d="m204 358.1c0 0 20.4-62.3 53.8-85.6 5.1-3.6-26.4-211.2 29.7-187.6 55.8 23.7 86.6 119.4 86.6 119.4 0 0 25.3-10.6 61.8-9.3"/>
			<path id="Forma 6" fill-rule="evenodd" class="s2" d="m367.8 369.7c-12.8 0-23.2-13.9-23.2-31 0-17.2 10.4-31.1 23.2-31.1 12.9 0 23.3 13.9 23.3 31.1 0 17.1-10.4 31-23.3 31z"/>
			<path id="Forma 6 copy" fill-rule="evenodd" class="s2" d="m497.1 369.7c-12.9 0-23.3-13.9-23.3-31 0-17.2 10.4-31.1 23.3-31.1 12.9 0 23.3 13.9 23.3 31.1 0 17.1-10.4 31-23.3 31z"/>
		</g>
	</g>
	<g id="Capa 3">
	</g>
</svg>